<?xml version="1.0"?>
<svg version="1.1" xmlns="http://www.w3.org/2000/svg" width="400px" height="200px" style="border: dashed 2px #aaa"><path fill="#0d81d4" d="M75.076171875,142.08984375q-0.048828125-1.46484375-0.048828125-2.9296875q0-4.58984375,0.48828125-9.228515625q0.5859375-6.15234375,0.78125-12.109375q0.1953125-6.982421875,0.5859375-14.501953125q0.244140625-4.1015625,0.244140625-8.10546875q0-3.271484375-0.146484375-6.494140625q0.48828125-1.123046875,1.2939453125-1.513671875t2.0263671875-0.390625q0.5859375,0,1.2451171875,0.09765625t1.1474609375,0.48828125q0.68359375,0.09765625,1.6845703125,0.1953125t1.5380859375,0.5859375q0.1953125,0.29296875,1.0009765625,2.001953125t1.904296875,4.150390625t2.294921875,5.2978515625t2.294921875,5.419921875t1.904296875,4.5166015625t1.0009765625,2.44140625q4.58984375-8.30078125,8.984375-17.0654296875t9.619140625-16.5283203125q0.48828125-0.68359375,1.6845703125-1.0009765625t1.9775390625-0.3173828125q2.099609375,0,3.0517578125,1.0009765625t1.2451171875,2.5634765625q0.1953125,0.9765625,0.244140625,2.099609375q0.048828125,0.5859375-0.048828125,1.220703125q-0.1953125,1.806640625-0.1953125,3.41796875q0,11.376953125-0.78125,22.5830078125t-1.416015625,22.6318359375q-0.09765625,2.34375-0.09765625,4.8828125t0.09765625,5.2734375q0.048828125,0.9765625,0.048828125,1.904296875q0,4.296875-0.732421875,8.0078125q-0.68359375,1.123046875-2.24609375,1.416015625t-2.63671875,0.29296875q-2.294921875,0-4.39453125-1.07421875l-0.537109375-0.634765625l-0.1953125-0.78125t-0.09765625-0.78125q0-7.080078125,0.5126953125-14.2578125t1.1474609375-14.3310546875t1.3427734375-14.2822265625t1.1962890625-14.2578125q-2.880859375,4.78515625-5.5908203125,9.7412109375t-5.1025390625,10.0830078125q-0.87890625,2.001953125-1.6845703125,4.296875t-1.9287109375,4.1015625q-0.5859375,0.87890625-1.9775390625,1.07421875t-2.4169921875,0.1953125q-0.9765625,0-2.0263671875-0.341796875t-1.4404296875-1.46484375q-1.806640625-5.517578125-3.857421875-10.791015625t-4.150390625-10.693359375q0,3.61328125,0.146484375,9.3505859375t0.146484375,11.8896484375t-0.1953125,11.767578125t-0.927734375,8.88671875q-0.1953125,1.220703125-1.5869140625,1.513671875t-2.4169921875,0.29296875q-0.78125,0-1.4892578125-0.09765625t-1.3916015625-0.390625z M133.06787109375,120.8984375q0-1.416015625,0.8056640625-1.85546875t2.0263671875-0.439453125q2.001953125,0,3.0517578125,0.7568359375t1.0498046875,2.6611328125q0,2.294921875,0.341796875,5.7373046875t1.0009765625,6.689453125t1.5625,5.5908203125t1.8798828125,2.34375q1.806640625,0,3.1982421875-2.783203125t2.44140625-6.8359375t1.806640625-8.7158203125t1.0498046875-8.3251953125q0.1953125-2.001953125,0.9521484375-2.9052734375t2.7587890625-0.9033203125q2.294921875,0,3.3447265625,1.904296875t1.3427734375,4.6875q0.244140625,2.392578125,0.244140625,4.98046875l0,0.830078125l0,1.953125q0,1.85546875,0.048828125,3.3203125l1.416015625,29.931640625l0.1953125,4.98046875q0.09765625,0.68359375,0.146484375,1.2939453125t0.048828125,1.2939453125q0,2.783203125-1.1962890625,3.5888671875t-3.8818359375,0.8056640625q-0.5859375,0-1.4892578125-0.09765625t-1.7578125-0.390625t-1.46484375-0.8056640625t-0.6103515625-1.2939453125l0.1953125-0.48828125q0.244140625-2.9296875,0.244140625-6.15234375l0-1.025390625q-0.048828125-3.80859375-0.244140625-7.71484375t-0.439453125-7.8125t-0.244140625-7.51953125q-0.68359375,1.513671875-1.5869140625,3.125t-2.099609375,2.9052734375t-2.7099609375,2.1484375t-3.41796875,0.8544921875q-2.783203125,0-4.58984375-1.46484375t-2.8076171875-3.80859375t-1.4404296875-5.2490234375t-0.5859375-5.810546875t-0.1953125-5.5419921875t-0.390625-4.443359375z M173.8720703125,124.90234375l0-7.71484375q0-8.0078125,0.2685546875-15.8935546875t0.4638671875-15.8935546875q0-1.513671875-0.09765625-3.369140625q-0.048828125-0.537109375-0.048828125-1.025390625q0-1.220703125,0.1953125-2.392578125q0.244140625-1.5625,1.1962890625-2.685546875t3.1494140625-1.123046875q1.806640625,0,2.7587890625,0.390625t1.3427734375,1.1474609375t0.439453125,1.904296875t0.048828125,2.6611328125q0,8.10546875-0.1953125,16.259765625q-0.146484375,5.419921875-0.146484375,10.83984375q0,2.734375,0.048828125,5.46875q0.09765625,8.10546875,0.7568359375,16.2109375t2.2216796875,16.015625q4.8828125-0.1953125,9.765625-0.48828125t9.765625-0.29296875q0.48828125,0,1.3916015625,0.09765625t1.806640625,0.341796875t1.5380859375,0.634765625t0.634765625,1.123046875q0,0.48828125-0.439453125,0.830078125t-0.830078125,0.537109375l-0.09765625,0q-0.78125,0.390625-3.1005859375,0.7568359375t-5.2734375,0.5615234375t-6.201171875,0.341796875t-6.103515625,0.244140625t-4.9560546875,0.146484375t-2.587890625,0.048828125l-0.439453125,0q-1.171875,0-2.63671875-0.390625q-1.7578125-0.48828125-2.197265625-1.904296875q-0.87890625-3.61328125-1.3916015625-7.4951171875t-0.78125-7.8857421875t-0.2685546875-8.0078125z M217.21533203125,132.71484375q0-2.783203125,0.7080078125-5.7373046875t2.24609375-5.322265625t3.8818359375-3.857421875t5.6640625-1.4892578125q2.490234375,0,5.2490234375,0.8544921875t5.0537109375,2.44140625t3.7353515625,3.8818359375t1.4404296875,5.126953125q0,3.41796875-1.2451171875,6.494140625t-3.4912109375,5.4931640625t-5.2490234375,3.80859375t-6.5185546875,1.3916015625q-2.880859375,0-5.029296875-1.0498046875t-3.5888671875-2.8076171875t-2.1484375-4.150390625t-0.7080078125-5.078125z M224.39306640625,132.6171875q0,0.87890625,0.2685546875,2.587890625t0.8056640625,3.3447265625t1.3916015625,2.83203125t2.0751953125,1.0986328125q2.587890625-0.29296875,4.2724609375-1.6845703125t2.734375-3.3935546875t1.46484375-4.345703125t0.4150390625-4.443359375q0-2.685546875-1.0498046875-4.4921875t-3.4423828125-2.9296875q0,0.09765625,0.09765625,0.09765625t0.09765625-0.09765625l-1.220703125-0.29296875q-0.48828125-0.1953125-1.1962890625-0.439453125t-1.3916015625-1.07421875q-1.904296875,0.68359375-2.9541015625,1.7578125t-1.5869140625,2.6123046875t-0.6591796875,3.6865234375t-0.1220703125,5.17578125z M254.2109375,130.078125q0-2.685546875,0.5126953125-5.7373046875t1.7578125-5.5908203125t3.4423828125-4.19921875t5.615234375-1.66015625q2.294921875,0,4.443359375,0.7568359375t4.052734375,2.0751953125q0.5859375-0.9765625,1.85546875-1.1962890625t2.24609375-0.2197265625q0.390625,0,1.0986328125,0.048828125t1.3916015625,0.29296875t1.1962890625,0.5859375t0.6103515625,0.9765625q0.390625,3.41796875,0.537109375,6.8115234375t0.439453125,6.7626953125q0.48828125,6.298828125,1.513671875,12.451171875t1.025390625,12.451171875q0,2.978515625-0.2685546875,6.4453125t-1.416015625,6.4208984375t-3.3447265625,4.9072265625t-6.103515625,1.953125q-3.515625,0-5.3955078125-1.2451171875t-3.3935546875-4.1748046875q0.09765625-0.9765625,1.2451171875-1.2939453125t1.9775390625-0.3173828125q0.78125,0,1.5869140625,0.146484375t1.2939453125,0.48828125l1.220703125,0.78125q1.806640625-3.7109375,2.197265625-8.10546875t0.390625-8.49609375q0-3.41796875-0.341796875-6.7626953125t-0.68359375-6.7138671875q-3.41796875,6.201171875-10.400390625,6.201171875q-3.22265625,0-5.2490234375-1.3671875t-3.125-3.466796875t-1.513671875-4.736328125t-0.4150390625-5.2734375z M260.216796875,130.517578125q0,1.220703125,0.09765625,3.1494140625t0.5126953125,3.7841796875t1.1962890625,3.1982421875t2.197265625,1.3427734375q2.685546875,0,4.248046875-2.099609375t2.4658203125-5.0048828125t1.4404296875-6.005859375t1.3671875-5.1025390625q-0.09765625-0.68359375-0.09765625-1.3427734375l0-1.3427734375q-1.123046875-2.099609375-3.271484375-3.6376953125t-4.443359375-2.0751953125q-0.29296875-0.048828125-0.537109375-0.048828125q-1.3671875,0-2.24609375,1.611328125q-1.123046875,1.953125-1.7578125,4.6630859375t-0.9033203125,5.3466796875t-0.2685546875,3.564453125z M294.96630859375,132.71484375q0-2.783203125,0.7080078125-5.7373046875t2.24609375-5.322265625t3.8818359375-3.857421875t5.6640625-1.4892578125q2.490234375,0,5.2490234375,0.8544921875t5.0537109375,2.44140625t3.7353515625,3.8818359375t1.4404296875,5.126953125q0,3.41796875-1.2451171875,6.494140625t-3.4912109375,5.4931640625t-5.2490234375,3.80859375t-6.5185546875,1.3916015625q-2.880859375,0-5.029296875-1.0498046875t-3.5888671875-2.8076171875t-2.1484375-4.150390625t-0.7080078125-5.078125z M302.14404296875,132.6171875q0,0.87890625,0.2685546875,2.587890625t0.8056640625,3.3447265625t1.3916015625,2.83203125t2.0751953125,1.0986328125q2.587890625-0.29296875,4.2724609375-1.6845703125t2.734375-3.3935546875t1.46484375-4.345703125t0.4150390625-4.443359375q0-2.685546875-1.0498046875-4.4921875t-3.4423828125-2.9296875q0,0.09765625,0.09765625,0.09765625t0.09765625-0.09765625l-1.220703125-0.29296875q-0.48828125-0.1953125-1.1962890625-0.439453125t-1.3916015625-1.07421875q-1.904296875,0.68359375-2.9541015625,1.7578125t-1.5869140625,2.6123046875t-0.6591796875,3.6865234375t-0.1220703125,5.17578125z"/><path fill="#" d=""/></svg>
